<?xml version="1.0" encoding="utf-8"?>
<!-- Generator: Adobe Illustrator 19.1.0, SVG Export Plug-In . SVG Version: 6.00 Build 0)  -->
<svg version="1.1" id="Layer_1" xmlns="http://www.w3.org/2000/svg" xmlns:xlink="http://www.w3.org/1999/xlink" x="0px" y="0px"
	 viewBox="0 0 324 144" style="enable-background:new 0 0 324 144;" xml:space="preserve">
<style type="text/css">
	.st0{fill-rule:evenodd;clip-rule:evenodd;fill:#E11A2C;}
</style>
<g>
	<g>
		<path class="st0" d="M45.7,52.6c-1.2,2.5-0.7,4.5,1.1,4.6c1.8,0,4.2-2,5.3-4.5c1.2-2.5,0.7-4.5-1.1-4.6
			C49.3,48.2,46.9,50.2,45.7,52.6z M60.1,43.6C60.1,43.6,60.1,43.7,60.1,43.6C60.1,43.7,60.1,43.7,60.1,43.6c-1,3-2.8,6.4-4.5,9
			c-3.7,5.4-8.9,8.9-11.7,7.6c-2.8-1.2-2.1-6.6,1.5-12c0.8-1.2,1.7-2.3,2.7-3.3c0,0,0,0,0,0c0,0,0,0,0,0c0,0,0,0,0,0
			c-1.1,0.2-2.3,0.4-3.5,0.7c0,0,0,0,0,0C32.1,60.7,26.9,80.4,27.6,98l0,0c0,0,0,0,0,0c0,0,0,0,0,0C20.3,95.1,15,88,14.4,79.1l0-0.1
			C13.5,63.2,26.1,47,42.6,42.8C49,41.2,55,41.6,60.1,43.6z"/>
		<path d="M55.4,86.4c-1.2,0.8-2.5,1.6-3.7,2.3c0,0,0,0,0,0c0,0,0,0,0,0c-0.2-3.8-1.1-7.5-2.5-10.6c-3.8-8.2-10.4-8.8-14.7-1.4
			c-2.7,4.5-3.9,11-3.6,17.3c0,0,0,0,0,0c4.6,1.5,10,1.6,15.7,0.2C63,90,75.6,73.7,74.7,57.9C73.9,44,62.9,35,49.1,35.9c0,0,0,0,0,0
			c-1.3,1.4-2.6,2.7-3.8,4.1c0,0,0,0,0,0c0,0,0,0,0,0c0,0,0,0,0,0c8.1-1,14.6,0.6,18.8,4c0,0,0,0,0,0c0,0,0,0,0,0
			C49.6,64.7,51.4,76.4,55.4,86.4C55.4,86.3,55.4,86.3,55.4,86.4C55.4,86.4,55.4,86.4,55.4,86.4z"/>
	</g>
	<g>
		<path d="M191.6,62.8c3.4,0,6,0.8,7.2,1.4c0,0,0,0,0,0l-1.2,6.2c0,0,0,0,0,0c0,0,0,0,0,0c-1.4-0.8-3.8-1.6-6.4-1.6
			c-2.2,0-3.6,0.9-3.6,2.4c0,1.1,1.1,2.1,3.4,3.2c3,1.5,6.4,3.7,6.4,7.7c0,2.6-0.9,4.8-2.6,6.5c-2.3,2.3-6,3.5-10.4,3.5
			c-3.4-0.1-6.9-0.9-8.6-2.2c0,0,0,0,0,0l1.2-6.3c0,0,0,0,0,0c0,0,0,0,0,0c1.9,1.2,5.5,2.4,8.2,2.4c2.1,0,3.5-1,3.5-2.5
			c0-1.4-1-2.4-3.5-3.6c-4-2-6-4.5-6-7.5C179.2,66.8,184.2,62.8,191.6,62.8z"/>
		<path d="M100.2,62.8c0.5,0,1.1,0.1,1.6,0.1c0,0,0,0,0,0c0,0,0,0,0,0l-1.6,8.1c0,0,0,0,0,0c0,0,0,0,0,0C99.8,71,99.3,71,98.8,71
			c-5.7,0-7.9,5.6-8.8,10.2l-2,10.8c0,0,0,0,0,0h-8.3c0,0,0,0,0,0c0,0,0,0,0,0L85,63.4c0,0,0,0,0,0l7.3,0c0,0,0,0,0,0c0,0,0,0,0,0
			l-0.9,4.9c0,0,0,0.1,0,0.1c0,0,0.1,0,0.1,0C93.8,64.8,96.8,62.8,100.2,62.8z"/>
		<path d="M111.2,70.9c-2.3,2.3-3.9,6.5-3.9,9.8c0,3,1.1,4.8,3,4.8c3,0,5.7-3.2,6.6-7.9c0.2-1,0.4-2.1,0.6-3
			c0.1-0.9,0.2-1.8,0.2-2.4c-0.1-2-1.1-3.1-3-3.1C113.5,69.2,112.3,69.8,111.2,70.9z M114.3,91.7C114.3,91.7,114.3,91.7,114.3,91.7
			l0.7-3.6c0-0.1,0-0.1-0.1-0.1c0,0-0.1,0-0.1,0c-1.5,2.6-4.6,4.3-8,4.3c-5.6,0-8.1-4.9-8.1-9.9c0-5.6,2.2-11.2,5.9-14.9
			c3.1-3.1,7.1-4.7,11.6-4.7c3.4,0,5.9,1,7.5,2.9c2.3,2.8,2.1,7.1,1.6,10.2l-3,15.8c0,0,0,0,0,0L114.3,91.7
			C114.3,91.7,114.3,91.7,114.3,91.7z"/>
		<path d="M211.2,86c4.4,0,7.6-6.2,7.6-11.8c0-1.3-0.3-4.6-3.4-4.6c-3.1,0-5.8,3.6-6.8,9C208.3,80.4,207.4,86,211.2,86z M218.4,62.8
			c5.5,0,9.1,4.2,9.1,10.8c0,6.9-3.3,13.9-9.2,17.1c-5.4,2.9-10.3,1.6-11.8-0.6c0,0,0,0,0,0l-2,10.7c0,0,0,0,0,0h-8.3c0,0,0,0,0,0
			c0,0,0,0,0,0l7.1-37.5c0,0,0,0,0,0l7.3,0c0,0,0,0,0,0c0,0,0,0,0,0l-0.7,3.8c0,0,0,0.1,0,0.1c0,0,0.1,0,0.1,0l0,0
			C212.2,64.4,215.2,62.8,218.4,62.8z"/>
		<path d="M156.3,53.5h8.2c0,0,0,0,0,0c0,0,0,0,0,0l-4.3,22.6c0,0,0,0,0,0c0,0,0,0,0,0l11.1-12.8c0,0,0,0,0,0h9c0,0,0,0,0,0
			c0,0,0,0,0,0c0,0,0,0,0,0L169,76.4l7,15.2c0,0,0,0,0,0c0,0,0,0,0,0c0,0,0,0,0,0H167c0,0,0,0,0,0l-6.8-15c0,0,0,0,0,0c0,0,0,0,0,0
			l-2.9,15c0,0,0,0,0,0H149c0,0,0,0,0,0c0,0,0,0,0,0L156.3,53.5C156.2,53.5,156.2,53.5,156.3,53.5z"/>
		<path d="M297.1,71.3c0-1.5-1.2-2.4-3-2.4c-3.6,0-5.9,2.9-6.5,5.6l0,0.1c0,0,0,0,0,0c0,0,0,0,0,0h0.1c4.8,0,7.6-0.5,8.8-1.7
			C296.9,72.6,297.1,72,297.1,71.3z M295.1,62.8c5.9,0,9.8,3.4,9.8,8.5c0,2.3-0.8,4.3-2.3,5.8c-2.8,2.7-8,3.9-15.9,3.7l-0.1,0
			c0,0,0,0,0,0c0,0,0,0,0,0l0,0.1c0,0.8,0.3,2,0.8,2.7c1.1,1.4,3,2.1,5.4,2.1c3.5,0,6.5-0.8,9.8-2.7c0,0,0,0,0,0c0,0,0,0,0,0
			l-1.3,6.9c0,0,0,0,0,0c-4,2-8.7,2.3-10.5,2.3c-7.8,0-12.3-4.3-12.3-11.9c0-4.4,1.6-8.7,4.4-12C286.1,64.8,290.4,62.8,295.1,62.8z"
			/>
		<path d="M305,88.8c-0.2,1.7,1.1,3.1,2.8,3.1c1.8,0,3.3-1.4,3.5-3.2c0.2-1.7-1.1-3.1-2.8-3.1C306.7,85.6,305.2,87,305,88.8z
			 M304.5,88.7c0.2-2,2-3.7,4-3.7s3.5,1.6,3.3,3.7c-0.2,2-2,3.7-4,3.7C305.8,92.4,304.3,90.7,304.5,88.7z M307.4,86.6
			C307.4,86.6,307.4,86.5,307.4,86.6l0.9,0l0,0c0.2,0,0.4,0,0.5,0c0.2,0,0.3,0,0.4,0.1c0.5,0.2,0.7,0.5,0.7,1c0,0.1,0,0.2,0,0.3
			c-0.1,0.6-0.5,1-1.1,1.2l0.6,1.7c0,0,0,0,0,0c0,0,0,0,0,0c0,0,0,0,0,0h-0.6c0,0,0,0,0,0l-0.6-1.6l-0.4,0h0h-0.4l-0.3,1.6
			c0,0,0,0,0,0h-0.5c0,0,0,0,0,0c0,0,0,0,0,0l0.3-1.7l0,0l0.2-1.3L307.4,86.6z M308.2,87.1h-0.4l-0.2,0.8l-0.2,0.8h0.4h0
			c0.2,0,0.3,0,0.4,0c0.1,0,0.2,0,0.3-0.1c0.4-0.1,0.6-0.4,0.7-0.7c0.1-0.4-0.1-0.6-0.4-0.7c-0.1,0-0.2,0-0.3-0.1
			C308.6,87.1,308.4,87.1,308.2,87.1L308.2,87.1z"/>
		<path d="M240.5,70.9c-2.3,2.3-3.9,6.5-3.9,9.8c0,3,1.1,4.8,3,4.8c3,0,5.7-3.2,6.6-7.9c0.2-1,0.4-2.1,0.6-3
			c0.1-0.9,0.2-1.8,0.2-2.4c-0.1-2-1.1-3.1-3-3.1C242.8,69.2,241.6,69.8,240.5,70.9z M243.6,91.7C243.6,91.7,243.6,91.7,243.6,91.7
			l0.7-3.6c0-0.1,0-0.1-0.1-0.1c0,0-0.1,0-0.1,0c-1.5,2.6-4.6,4.3-8,4.3c-5.6,0-8.1-4.9-8.1-9.9c0-5.6,2.2-11.2,5.9-14.9
			c3.1-3.1,7.1-4.7,11.6-4.7c3.4,0,5.9,1,7.5,2.9c2.3,2.8,2.1,7.1,1.6,10.2l-3,15.8c0,0,0,0,0,0L243.6,91.7
			C243.7,91.7,243.6,91.7,243.6,91.7z"/>
		<path d="M274.4,62.9c2.1,0,4.3,0.4,5.8,1c0,0,0,0,0,0l-1.3,6.7c0,0,0,0,0,0c0,0,0,0,0,0c-1.3-0.7-2.8-1.1-4.6-1.1
			c-6,0-9.5,5.2-9.5,10.2c0,4.3,2.8,5.8,5.5,5.8c2.4,0,4.4-0.5,6.9-1.8c0,0,0,0,0,0c0,0,0,0,0,0l-1.3,6.9c0,0,0,0,0,0
			c-1.9,0.9-4.9,1.5-8,1.5c-7.2,0-11.9-4.5-11.9-11.6C256,70.6,263.9,62.9,274.4,62.9z"/>
		<path d="M145.1,62.9c2.1,0,4.3,0.4,5.8,1c0,0,0,0,0,0l-1.3,6.7c0,0,0,0,0,0c0,0,0,0,0,0c-1.3-0.7-2.8-1.1-4.6-1.1
			c-6,0-9.5,5.2-9.5,10.2c0,4.3,2.8,5.8,5.5,5.8c2.4,0,4.4-0.5,6.9-1.8c0,0,0,0,0,0c0,0,0,0,0,0l-1.3,6.9c0,0,0,0,0,0
			c-1.9,0.9-4.9,1.5-8,1.5c-7.2,0-11.9-4.5-11.9-11.6C126.7,70.6,134.6,62.9,145.1,62.9z"/>
	</g>
</g>
</svg>
