<?xml version="1.0" encoding="utf-8"?>
<!-- Generator: Adobe Illustrator 14.0.0, SVG Export Plug-In . SVG Version: 6.00 Build 43363)  -->
<!DOCTYPE svg PUBLIC "-//W3C//DTD SVG 1.1//EN" "http://www.w3.org/Graphics/SVG/1.1/DTD/svg11.dtd">
<svg version="1.1" id="Layer_1" xmlns="http://www.w3.org/2000/svg" xmlns:xlink="http://www.w3.org/1999/xlink" x="0px" y="0px"
	 width="211.68px" height="48.96px" viewBox="0 0 211.68 48.96" enable-background="new 0 0 211.68 48.96" xml:space="preserve">
<g>
	<path fill="#FFFFFF" d="M36.581,37.008c-0.97,0-1.761-0.799-1.761-1.773c0-0.982,0.791-1.781,1.761-1.781
		c0.971,0,1.761,0.799,1.761,1.781C38.341,36.209,37.551,37.008,36.581,37.008z M34.819,28.119c-2.906,0-5.272,2.391-5.272,5.334
		s2.366,5.336,5.272,5.336c2.911,0,5.278-2.393,5.278-5.336S37.731,28.119,34.819,28.119"/>
	<path fill="#FFFFFF" d="M15.143,37.008c-0.97,0-1.761-0.799-1.761-1.773c0-0.982,0.791-1.781,1.761-1.781
		c0.971,0,1.761,0.799,1.761,1.781C16.904,36.209,16.114,37.008,15.143,37.008z M13.382,28.119c-2.906,0-5.272,2.391-5.272,5.334
		s2.366,5.336,5.272,5.336c2.911,0,5.278-2.393,5.278-5.336S16.293,28.119,13.382,28.119"/>
	<path fill="#FFFFFF" d="M47.023,18.372c-0.562-3.026-13.675-5.241-21.831-5.434V7.289c1.243-0.545,2.115-1.796,2.115-3.256
		c0-1.962-1.576-3.555-3.522-3.555c-1.941,0-3.517,1.593-3.517,3.555c0,1.46,0.873,2.711,2.11,3.256v5.666
		c-8.184,0.281-20.686,2.463-21.231,5.417C0.558,21.535,0.34,29.486,0.34,37.283c0,6.773,11.924,11.193,23.745,11.193
		c11.815,0,23.745-4.42,23.745-11.193C47.83,29.484,47.606,21.534,47.023,18.372z M5.471,33.453c0-4.418,3.544-8.002,7.911-8.002
		c4.373,0,7.917,3.584,7.917,8.002c0,4.42-3.544,8.002-7.917,8.002C9.015,41.455,5.471,37.873,5.471,33.453z M30.164,45.176
		c-0.103,0.055-2.47,1.328-6.096,1.328c-3.631,0-5.97-1.273-6.068-1.328c-0.682-0.381-0.932-1.246-0.556-1.934
		c0.371-0.686,1.221-0.939,1.903-0.562c0.049,0.021,1.875,0.98,4.721,0.98c2.874,0,4.733-0.977,4.755-0.98
		c0.681-0.375,1.537-0.123,1.908,0.572C31.096,43.941,30.846,44.807,30.164,45.176z M34.782,41.455
		c-4.373,0-7.917-3.582-7.917-8.002c0-4.418,3.544-8.002,7.917-8.002s7.917,3.584,7.917,8.002
		C42.699,37.873,39.155,41.455,34.782,41.455z"/>
	<path fill="#FFFFFF" d="M75.4,20.497h-6.417v16.429h-3.208V20.497h-6.416V17.47H75.4V20.497"/>
	<path fill="#FFFFFF" d="M84.756,24.819h-4.277c-0.722,0-1.07,0.433-1.07,1.298v10.809h-3.208V26.117
		c0-2.947,1.363-4.324,4.278-4.324h4.277V24.819"/>
	<path fill="#FFFFFF" d="M97.32,29.684l-6.417,1.621c-0.962,0.242-1.069,0.568-1.069,1.297c0,0.865,0.348,1.297,1.069,1.297h5.348
		c0.721,0,1.067-0.432,1.067-1.297v-2.918H97.32z M100.529,26.117v6.484c0,2.943-1.363,4.322-4.277,4.322h-5.348
		c-2.913,0-4.277-1.379-4.277-4.322c0-1.299,0.428-2.189,1.364-2.73c0.962-0.568,1.524-0.756,2.913-1.107l6.417-1.621v-1.025
		c0-0.865-0.349-1.298-1.068-1.298h-5.348c-0.721,0-1.069,0.433-1.069,1.298v1.08h-3.208v-1.08c0-2.947,1.364-4.324,4.277-4.324
		h5.348C99.166,21.793,100.529,23.17,100.529,26.117"/>
	<path fill="#FFFFFF" d="M114.297,26.117c0-0.865-0.348-1.298-1.068-1.298h-5.348c-0.723,0-1.07,0.433-1.07,1.298v10.809h-3.207
		V26.117c0-2.947,1.363-4.324,4.277-4.324h5.348c2.913,0,4.276,1.377,4.276,4.324v10.809h-3.208V26.117"/>
	<path fill="#FFFFFF" d="M130.07,36.926h-5.349c-2.914,0-4.276-1.379-4.276-4.324v-1.08h3.209v1.08c0,0.865,0.347,1.297,1.067,1.297
		h5.349c0.722,0,1.068-0.432,1.068-1.297c0-0.621,0-0.92-1.068-1.297l-5.349-1.352c-1.39-0.352-1.951-0.539-2.914-1.08
		c-0.936-0.568-1.362-1.459-1.362-2.756c0-2.947,1.362-4.324,4.276-4.324h5.349c2.913,0,4.275,1.377,4.275,4.324v1.08h-3.206v-1.08
		c0-0.865-0.348-1.298-1.068-1.298h-5.349c-0.722,0-1.067,0.433-1.067,1.298c0,0.619,0,0.918,1.067,1.297l5.349,1.35
		c1.39,0.354,1.95,0.541,2.888,1.109c0.962,0.539,1.389,1.432,1.389,2.729C134.347,35.547,132.984,36.926,130.07,36.926"/>
	<path fill="#FFFFFF" d="M141.031,33.898h2.672v3.025h-2.672c-2.675,0-3.743-1.08-3.743-3.783V17.469h3.208v15.672
		C140.496,33.682,140.576,33.898,141.031,33.898"/>
	<path fill="#FFFFFF" d="M156.402,26.117c0-0.865-0.349-1.298-1.069-1.298h-5.347c-0.724,0-1.069,0.433-1.069,1.298v6.484
		c0,0.863,0.347,1.297,1.069,1.297h5.347c0.722,0,1.068-0.434,1.068-1.297L156.402,26.117L156.402,26.117z M159.611,26.117v6.484
		c0,2.943-1.312,4.322-4.278,4.322h-5.347c-2.968,0-4.277-1.379-4.277-4.322v-6.484c0-2.947,1.311-4.324,4.277-4.324h5.347
		C158.301,21.793,159.611,23.17,159.611,26.117"/>
	<path fill="#FFFFFF" d="M173.111,29.684l-6.416,1.621c-0.964,0.242-1.07,0.568-1.07,1.297c0,0.865,0.348,1.297,1.07,1.297h5.347
		c0.722,0,1.069-0.432,1.069-1.297V29.684L173.111,29.684z M176.318,26.117v6.484c0,2.943-1.361,4.322-4.275,4.322h-5.347
		c-2.914,0-4.278-1.379-4.278-4.322c0-1.299,0.428-2.189,1.364-2.73c0.961-0.568,1.522-0.756,2.914-1.107l6.416-1.621v-1.025
		c0-0.865-0.349-1.298-1.069-1.298h-5.347c-0.724,0-1.07,0.433-1.07,1.298v1.08h-3.208v-1.08c0-2.947,1.364-4.324,4.278-4.324h5.347
		C174.956,21.793,176.318,23.17,176.318,26.117"/>
	<path fill="#FFFFFF" d="M189.953,32.602V24.82h-6.416c-0.724,0-1.069,0.432-1.069,1.297v6.484c0,0.865,0.347,1.297,1.069,1.297
		h5.347C189.605,33.898,189.953,33.467,189.953,32.602z M193.16,17.47v15.132c0,2.945-1.31,4.324-4.276,4.324h-5.347
		c-2.969,0-4.277-1.379-4.277-4.324v-6.484c0-2.946,1.309-4.323,4.277-4.323h6.416v-4.324L193.16,17.47"/>
	<path fill="#FFFFFF" d="M200.188,12.985c-1.225-1.278-3.2-1.278-4.466,0c-1.225,1.237-1.225,3.235,0,4.512
		c0.199,0.195,0.419,0.347,0.647,0.481v18.945h3.207V17.967c0.217-0.132,0.425-0.282,0.61-0.47
		C201.451,16.222,201.451,14.224,200.188,12.985"/>
	<path fill="#FFFFFF" d="M211.34,33.898v3.025h-4.812c-2.672,0-3.741-1.08-3.741-3.783V17.469h3.207v4.324h4.812v3.026h-4.812v8.32
		c0,0.541,0.082,0.758,0.534,0.758h4.812"/>
</g>
</svg>
