<?xml version="1.0" encoding="utf-8"?>
<!-- Generator: Adobe Illustrator 19.1.0, SVG Export Plug-In . SVG Version: 6.00 Build 0)  -->
<svg version="1.1" id="Layer_1" xmlns="http://www.w3.org/2000/svg" xmlns:xlink="http://www.w3.org/1999/xlink" x="0px" y="0px"
	 viewBox="-120 104 959 593" style="enable-background:new -120 104 959 593;" xml:space="preserve">
<style type="text/css">
	.st0{fill:#D3D3D3;}
	.st1{fill:#EACC88;}
	.st2{fill:none;stroke:#38342C;stroke-width:2;}
	.st3{fill:none;stroke:#38342C;stroke-width:2;stroke-dasharray:20.9843,20.9843;}
	.st4{fill:none;stroke:#38342C;stroke-width:2;stroke-dasharray:20;}
</style>
<title>Blank US states map</title>
<path id="AL" class="st0" d="M512.2,580.6l0.6,0.2l1.3-2.7l1.5-4.4l2.3,0.6l3.1,6v1l-2.7,1.9l2.7,0.3l5.2-2.5l-0.3-7.6l-2.5-1.8
	l-2-2l0.4-4l10.5-1.5l25.7-2.9l6.7-0.6l5.6,0.1l-0.5-2.2l-1.5-0.8l-0.9-1.1l1-2.6l-0.4-5.2l-1.6-4.5l0.8-5.1l1.7-4.8l-0.2-1.7
	l-1.8-0.7l-0.5-3.6l-2.7-3.4l-2-6.5l-1.4-6.7l-1.8-5l-3.8-16l-3.5-7.9l-0.8-5.6l0.1-2.2l-9,0.8l-23.4,2.2l-12.2,0.8l-0.2,6.4
	l0.2,16.7l-0.7,31l-0.3,14.1l2.8,18.8l1.6,14.7H512.2z"/>
<path id="AR" class="st0" d="M471,460.3l-6.4-0.7l0.9-3.1l3.1-2.6l0.6-2.3l-1.8-2.9l-31.9,1.2l-23.3,0.7l-23.6,0.3l1.5,6.9l0.1,8.5
	l1.4,10.9l0.3,38.2l2.1,1.6l3-1.2l2.9,1.2l0.4,10.1l25.2-0.2l26.8-0.8l0.9-1.9l-0.3-3.8l-1.7-3.1l1.5-1.4l-1.4-2.2l0.7-2.4l1.1-5.9
	l2.7-2.3l-0.8-2.2l4-5.6l2.5-1.1l-0.1-1.7l-0.5-1.7l2.9-5.8l2.5-1.1l0.2-3.3l2.1-1.4l0.9-4.1l-1.4-4l4.2-2.4l0.3-2.1l1.2-4.2
	l0.9-3.1L471,460.3z"/>
<path id="AZ" class="st0" d="M18.8,503.9l-0.3,1.5l0.5,1l18.9,10.7l12.1,7.6l14.7,8.6l16.8,10l12.3,2.4l25.4,2.7l6-39.6l7-53.1
	l4.4-31l-24.6-3.6l-60.7-11l-0.2,1.1l-2.6,16.5l-2.1,3.8l-2.8-0.2l-1.2-2.6l-2.6-0.4l-1.2-1.1l-1.1,0.1l-2.1,1.7l-0.3,6.8l-0.3,1.5
	l-0.5,12.5l-1.5,2.4l-0.4,3.3l2.8,5l1.1,5.5l0.7,1.1l1.1,0.9l-0.4,2.4l-1.7,1.2l-3.4,1.6L31,475l-1.6,3.6l-0.5,4.9l-3,2.9l-1.9,0.9
	l-0.1,5.8l-0.6,1.6l0.5,0.8l3.9,0.4l-0.9,3l-1.7,2.4l-3.7,0.4L18.8,503.9z"/>
<path id="CA" class="st0" d="M6.4,500.1l-19.7-2.7l-10-1.5l-0.5-1.8v-9.4l-0.3-3.2l-2.6-4.2l-0.8-2.3l-3.9-4.2l-2.9-4.7l-2.7-0.2
	l-3.2-0.8l-0.3-1l1.5-0.6l-0.6-3.2l-1.5-2.1l-4.8-0.8l-3.9-2.1l-1.1-2.3l-2.6-4.8l-2.9-3.1h-2.9l-3.9-2.1l-4.5-1.8l-4.2-0.5
	l-2.4-2.7l0.5-1.9l1.8-7.1l0.8-1.9v-2.4l-1.6-1l-0.5-2.9l-1.5-2.6l-3.4-5.8l-1.3-3.1l-1.5-4.7l-1.6-5.3l-3.2-4.4l-0.5-2.9l0.8-3.9
	h1.1l2.1-1.6l1.1-3.6l-1-2.7l-2.7-0.5l-1.9-2.6l-2.1-3.7l-0.2-8.2l0.6-1.9l0.6-2.3l0.5-2.4l-5.7-6.3v-2.1l0.3-0.5l0.3-3.2l-1.3-4
	l-2.3-4.8l-2.7-4.5l-1.8-3.9l1-3.7l0.6-5.8l1.8-3.1l0.3-6.5l-1.1-3.6l-1.6-4.2l-2.7-4.2l0.8-3.2l1.5-4.2l1.8-0.8l0.3-1.1l3.1-2.6
	l5.2-11.8l0.2-7.4l1.7-4.9L-49,274l25.6,6.6l-8,31.3l-8.7,33.1l12.6,19.2l42.2,62.3l17.1,26.1l-0.4,3.1l2.8,5.2l1.1,5.4l1,1.5
	l0.7,0.6l-0.2,1.4l-1.4,1l-3.4,1.6l-1.9,2.1l-1.7,3.9l-0.5,4.7l-2.6,2.5l-2.3,1.1l-0.1,6.2l-0.6,1.9l1,1.7l3,0.3l-0.4,1.6l-1.4,2
	l-3.9,0.6L6.4,500.1z M-67.5,451.2l1.3,1.5l-0.2,1.3l-3.2-0.1l-0.6-1.2l-0.6-1.5H-67.5z M-65.6,451.2l1.2-0.6l3.6,2.1l3.1,1.2
	l-0.9,0.6l-4.5-0.2l-1.6-1.6L-65.6,451.2z M-44.9,471l1.8,2.3l0.8,1l1.5,0.6l0.6-1.5l-1-1.8l-2.7-2l-1.1,0.2L-44.9,471L-44.9,471z
	 M-46.3,479.7l1.8,3.2l1.2,1.9l-1.5,0.2l-1.3-1.2c0,0-0.7-1.5-0.7-1.9s0-2.2,0-2.2H-46.3z"/>
<path id="CO" class="st1" d="M263.9,349.7l-36-3.5l-79.1-8.6l-2.2,22.1l-7,50.4l-1.9,13.7l34,3.9l37.5,4.4l34.7,3l14.3,0.6
	L263.9,349.7z"/>
<path id="CT" class="st0" d="M735.7,305.1l3.6-3.2l1.9-2.1l0.8,0.6l2.7-1.5l5.2-1.1l7-3.5l-0.6-4.2l-0.8-4.4l-1.6-6l-4.3,1.1
	l-21.8,4.7l0.6,3.1l1.5,7.3v8.3l-0.9,2.1l1.7,2.2L735.7,305.1z"/>
<path id="DE" class="st0" d="M718.1,361.4l-1,0.5l-3.6-2.4l-1.8-4.7l-1.9-3.6l-2.3-1l-2.1-3.6l0.5-2l0.5-2.3l0.1-1.1l-0.6,0.1
	l-1.7,1l-2,1.7l-0.2,0.3l1.4,4.1l2.3,5.6l3.7,16.1l5-0.3l6-1.1L718.1,361.4z"/>
<path id="GA" class="st0" d="M633.9,558.4l-5.6-0.7l-1.4,1.6l1.6,4.7l-0.3,3.9l-2.2-0.6l-0.2-3h-5.2l-5.3,0.7l-32.3,1.9l-7.7-0.3
	l-1.4-1.2l-2.5-4.3l-0.8-3.3l-1.6-0.9l-0.5-0.5l0.9-2.2l-0.4-5.5l-1.6-4.5l0.8-4.9l1.7-4.8l-0.2-2.5l-1.9-0.7l-0.4-3.2l-2.8-3.5
	l-1.9-6.2l-1.5-7l-1.7-4.8l-3.8-16l-3.5-8l-0.8-5.3l0.1-2.3l3.3-0.3l13.6-1.6l18.6-2l6.3-1.1l0.5,1.4l-2.2,0.9l-0.9,2.2l0.4,2
	l1.4,1.6l4.3,2.7l3.2-0.1l3.2,4.7l0.6,1.6l2.3,2.8l0.5,1.7l4.7,1.8l3,2.2l2.3,3l2.3,1.3l2,1.8l1.4,2.7l2.1,1.9l4.1,1.8l2.7,6
	l1.7,5.1l2.8,0.7l2.1,1.9l2,5.7l2.9,1.6l1.7-0.8l0.4,1.2l-3.3,6.2l0.5,2.6l-1.5,4.2l-2.3,10l0.8,6.3L633.9,558.4z"/>
<path id="IA" class="st0" d="M440.5,297.8l2.1,2.1l0.3,0.7l-2,3l0.3,4l2.6,4.1l3.1,1.6l2.4,0.3l0.9,1.8l0.2,2.4l2.5,1l0.9,1.1
	l0.5,1.6l3.8,3.3l0.6,1.9l-0.7,3l-1.7,3.7l-0.6,2.4l-2.1,1.6l-1.6,0.5l-5.7,1.5l-1.6,4.8l0.8,1.8l1.7,1.5L447,351l-1.9,1.4l-0.7,1.8
	v2.4L443,357l-1.7,1.4l-0.5,1.7l0.4,1.7l-1.3,1l-2.3-2.7l-1.4-2.8l-8.3,0.8l-10,0.6l-49.2,1.2l-1.6-4.3l-0.4-6.7l-1.4-4.2l-0.7-5.2
	l-2.2-3.7l-1-4.6l-2.7-7.8l-1.1-5.6l-1.4-1.9l-1.3-2.9l1.7-3.8l1.2-6.1l-2.7-2.2l-0.3-2.4l0.7-2.4l1.8-0.3l61.1-0.6l21.2-0.7
	L440.5,297.8z"/>
<path id="ID" class="st0" d="M59,141.8l-4.8,17.4l-4.5,20.9l-3.4,16.2l-0.4,9.7l1.2,4.4l3.5,2.7l-0.2,3.9l-3.9,4.4L42,228l-0.9,2.9
	l-1.2,1.1l-1.8,0.8l-4.3,5.3l-0.4,3.1l-0.4,1.1l0.6,1l2.6-0.1l1.1,2.3l-2.4,5.8l-1.2,4.2l-8.8,35.3l20.7,4.5l39.5,7.9l34.8,6.1
	l4.9-29.2l3.8-24.1l-2.7-2.4l-0.4-2.6l-0.8-1.1l-2.1,1l-0.7,2.6l-3.2,0.5l-3.9-1.6l-3.8,0.1l-2.5,0.7l-3.4-1.5l-2.4,0.2l-2.4,2
	l-2-1.1l-0.7-4l0.7-2.9l-2.5-2.9l-3.3-2.6l-2.7-13.1l-0.1-4.7l-0.3-0.1l-0.2,0.4l-5.1,3.5l-1.7-0.2l-2.9-3.4l-0.2-3.1l7-17.1
	l-0.4-1.9l-3.4-1.1l-0.6-1.2l-2.6-3.5l-4.6-10.3l-3.2-1.5l-2-4.9l1.3-4.6l-3.2-7.6l4.4-21.5L59,141.8z"/>
<path id="IL" class="st1" d="M502.4,328.5l-0.8-2.6l-1.3-3.7l-1.6-1.8l-1.5-2.6l-0.4-5.5l-15.9,1.8l-17.4,1h-12.3l0.2,2.1l2.2,0.9
	l1.1,1.4l0.4,1.4l3.9,3.4l0.7,2.4L459,330l-1.7,3.7l-0.8,2.7l-2.4,1.9l-1.9,0.6l-5.2,1.3l-1.3,4.1l0.6,1.1l1.9,1.8l-0.2,4.3
	l-2.1,1.6l-0.5,1.3v2.8l-1.8,0.6l-1.4,1.2l-0.4,1.2l0.4,2l-1.6,1.3l-0.9,2.8l0.3,3.9l2.3,7l7,7.6l5.7,3.7v4.4l0.7,1.2l6.6,0.6
	l2.7,1.4l-0.7,3.5l-2.2,6.2l-0.8,3l2,3.7l6.4,5.3l4.8,0.8l2.2,5.1l2,3.4l-0.9,2.8l1.5,3.8l1.7,2.1l1.6-0.3l1-2.2l2.4-1.7l2.8-1
	l6.1,2.5l0.5-0.2v-1.1l-1.2-2.7l0.4-2.8l2.4-1.6l3.4-1.2l-0.5-1.3l-0.8-2l1.2-1.3l1-2.7v-4l0.4-4.9l2.5-3l1.8-3.8l2.5-4l-0.5-5.3
	l-1.8-3.2l-0.3-3.3l0.8-5.3l-0.7-7.2l-1.1-15.8l-1.4-15.3l-0.9-11.7L502.4,328.5z"/>
<path id="IN" class="st0" d="M506.6,330.3l1.5,1l1.1-0.3l2.1-1.9l2.5-1.8l14.3-1.1l18.4-1.8l1.6,15.5l4.9,42.6l-0.6,2.9l1.3,1.6
	l0.2,1.3l-2.3,1.6l-3.6,1.7l-3.2,0.4l-0.5,4.8l-4.7,3.6l-2.9,4l0.2,2.4l-0.5,1.4h-3.5l-1.4-1.7l-5.2,3l0.2,3.1l-0.9,0.2l-0.5-0.9
	l-2.4-1.7l-3.6,1.5l-1.4,2.9l-1.2-0.6l-1.6-1.8l-4.4,0.5l-5.7,1l-2.5,1.3v-2.6l0.4-4.7l2.3-2.9l1.8-3.9l2.7-4.2l-0.5-5.8l-1.8-3.1
	l-0.3-3.2l0.8-5.3l-0.7-7.1l-0.9-12.6l-2.5-30.1L506.6,330.3z"/>
<path id="KS" class="st0" d="M369.6,373.7l-43.8-0.6l-40.6-1.2l-21.7-0.9l-4.3,64.8l24.3,1l44.7,2.1l46.3,0.6l12.6-0.3l0.7-35
	l-1.2-11.1l-2.5-2l-2.4-3l-2.3-3.6l0.6-3l1.7-1.4V378l-0.8-0.7l-2.6-0.2l-3.5-3.4L369.6,373.7z"/>
<path id="KY" class="st0" d="M490.9,446l12.6-0.7l0.1-4.1h4.3l30.4-3.2l45.1-4.3l5.6-3.6l3.9-2.1l0.1-1.9l6-7.8l4.1-3.6l2.1-2.4
	l-3.3-2l-2.5-2.7l-3-3.8l-0.5-2.2l-2.6-1.4l-0.9-1.9l-0.2-6.1l-2.6-2l-1.9-1.1l-0.5-2.3l-1.3,0.2l-2,1.2l-2.5,2.7l-1.9-1.7l-2.5-0.5
	l-2.4,1.4h-2.3l-1.8-2l-5.6-0.1l-1.8-4.5l-2.9-1.5l-2.1,0.8l-4.2,0.2l-0.5,2.1l1.2,1.5l0.3,2.1l-2.8,2l-3.8,1.8l-2.6,0.4l-0.5,4.5
	l-4.9,3.6l-2.6,3.7l0.2,2.2l-0.9,2.3l-4.5-0.1l-1.3-1.3l-3.9,2.2l0.2,3.3l-2.4,0.6l-0.8-1.4l-1.7-1.2l-2.7,1.1l-1.8,3.5l-2.2-1
	l-1.4-1.6l-3.7,0.4l-5.6,1l-2.8,1.3l-1.2,3.4l-1,1l1.5,3.7l-4.2,1.4l-1.9,1.4l-0.4,2.2l1.2,2.4v2.2l-1.6,0.4l-6.1-2.5l-2.3,0.9
	l-2,1.4l-0.8,1.8l1.7,2.4l-0.9,1.8l-0.1,3.3l-2.4,1.3l-2.1,1.7L490.9,446z"/>
<path id="LA" class="st0" d="M410.6,600.1l8.1-0.3l10.3,3.6l6.5,1.1l3.7-1.5l3.2,1.1l3.2,1l0.8-2.1l-3.2-1.1l-2.6,0.5l-2.7-1.6
	l0.8-1.5l3.1-1l1.8,1.5l1.8-1l3.2,0.6l1.5,2.4l0.3,2.3l4.5,0.3l1.8,1.8l-0.8,1.6l-1.3,0.8l1.6,1.6l8.4,3.6l3.6-1.3l1-2.4l2.6-0.6
	l1.8-1.5l1.3,1l0.8,2.9l-2.3,0.8l0.6,0.6l3.4-1.3l2.3-3.4l0.8-0.5l-2.1-0.3l0.8-1.6l-0.2-1.5l2.1-0.5l1.1-1.3l0.6,0.8l0.6,3.1
	l4.2,0.6l4,1.9l1,1.5h2.9l1.1,1l2.3-3.1v-1.5h-1.3l-3.4-2.7l-5.8-0.8l-3.2-2.3l1.1-2.7l2.3,0.3l0.2-0.6l-1.8-1v-0.5h3.2l1.8-3.1
	l-1.3-1.9l-0.3-2.7l-1.5,0.2l-1.9,2.1l-0.6,2.6l-3.1-0.6l-1-1.8l1.8-1.9l1.9-1.7l-2.2-6.5l-3.4-3.4l1-7.3l-0.2-0.5l-1.3,0.2
	l-33.1,1.4l-0.8-2.4l0.8-8.5l8.6-14.8l-0.9-2.6l1.4-0.4l0.4-2l-2.2-2l0.1-1.9l-2-4.5l-0.4-5.1l0.1-0.7l-26.4,0.8l-25.2,0.1l0.4,9.7
	l0.7,9.5l0.5,3.7l2.6,4.5l0.9,4.4l4.3,6l0.3,3.1l0.6,0.8l-0.7,8.3l-2.8,4.6l1.2,2.4l-0.5,2.6l-0.8,7.3l-1.3,3l0.2,3.7L410.6,600.1z"
	/>
<path id="MA" class="st0" d="M771.2,286.7l-0.5-2.3l0.8-1.5l2.9-1.5l0.8,3.1l-0.5,1.8l-2.4,1.5v1l1.9-1.5l3.9-4.5l3.9-1.9l4.2-1.5
	l-0.3-2.4l-1-2.9l-1.9-2.4l-1.8-0.8l-2.1,0.2l-0.5,0.5l1,1.3l1.5-0.8l2.1,1.6l0.8,2.7l-1.8,1.8l-2.3,1l-3.6-0.5l-3.9-6l-2.3-2.6
	h-1.8l-1.1,0.8l-1.9-2.6l0.3-1.5l2.4-5.2l-2.9-4.4l-3.7,1.8l-1.8,2.9l-18.3,4.7l-13.8,2.5l-0.6,10.6l0.7,4.9l22-4.8l11.2-2.8l2,1.6
	l3.4,4.3l2.9,4.7L771.2,286.7z M783.7,288.1l2.2-0.7l0.5-1.7l1,0.1l1,2.3l-1.3,0.5l-3.9,0.1L783.7,288.1z M774.3,288.9l2.3-2.6h1.6
	l1.8,1.5l-2.4,1l-2.2,1L774.3,288.9z"/>
<path id="MD" class="st0" d="M718.5,378.3l1.7-3.8l0.5-4.8l-6.3,1.1l-5.8,0.3l-3.8-16.8l-2.3-5.5l-1.5-4.6l-22.2,4.3l-37.6,7.6
	l2,10.4l4.8-4.9l2.5-0.7l1.4-1.5l1.8-2.7l1.6,0.7l2.6-0.2l2.6-2.1l2-1.5l2.1-0.6l1.5,1.1l2.7,1.4l1.9,1.8l1.3,1.4l4.8,1.6l-0.6,2.9
	l5.8,2.1l2.1-2.6l3.7,2.5l-2.1,3.3l-0.7,3.3l-1.8,2.6v2.1l0.3,0.8l2,1.3l3.4,1.1l4.3-0.1l3.1,1l2.1,0.3l1-2.1l-1.5-2.1v-1.8
	l-2.4-2.1l-2.1-5.5l1.3-5.3l-0.2-2.1l-1.3-1.3c0,0,1.5-1.6,1.5-2.3c0-0.6,0.5-2.1,0.5-2.1l1.9-1.3l1.9-1.6l0.5,1l-1.5,1.6l-1.3,3.7
	l0.3,1.1l1.8,0.3l0.5,5.5l-2.1,1l0.3,3.6l0.5-0.2l1.1-1.9l1.6,1.8l-1.6,1.3l-0.3,3.4l2.6,3.4l3.9,0.5l1.6-0.8l3.2,4.2l1,0.4
	L718.5,378.3z M704,378.5l1.1,2.5l0.2,1.8l1.1,1.9c0,0,0.9-0.9,0.9-1.2c0-0.3-0.7-3.1-0.7-3.1l-0.7-2.3L704,378.5z"/>
<path id="ME" class="st0" d="M749.5,206.1l1.5,0.4v-2.6l0.8-5.5l2.6-4.7l1.5-4l-1.9-2.4v-6l0.8-1l0.8-2.7l-0.2-1.5l-0.2-4.8l1.8-4.8
	l2.9-8.9l2.1-4.2h1.3l1.3,0.2v1.1l1.3,2.3l2.7,0.6l0.8-0.8v-1l4-2.9l1.8-1.8l1.5,0.2l6,2.4l1.9,1l9.1,29.9h6l0.8,1.9l0.2,4.8
	l2.9,2.3h0.8l0.2-0.5l-0.5-1.1l2.8-0.5l1.9,2.1l2.3,3.7v1.9l-2.1,4.7l-1.9,0.6l-3.4,3.1l-4.8,5.5c0,0-0.6,0-1.3,0
	c-0.6,0-1-2.1-1-2.1l-1.8,0.2l-1,1.5l-2.4,1.5l-1,1.5l1.6,1.5l-0.5,0.6l-0.5,2.7l-1.9-0.2v-1.6l-0.3-1.3l-1.5,0.3l-1.8-3.2l-2.1,1.3
	l1.3,1.5l0.3,1.1l-0.8,1.3l0.3,3.1l0.2,1.6l-1.6,2.6l-2.9,0.5l-0.3,2.9l-5.3,3.1l-1.3,0.5l-1.6-1.5l-3.1,3.6l1,3.2l-1.5,1.3
	l-0.2,4.4l-1.1,6.3l-2.2-0.9l-0.5-3.1l-4-1.1l-0.2-2.5l-11.7-37.4L749.5,206.1z M786,221.7l1.5-1.5l1.4,1.1l0.6,2.4l-1.7,0.9
	L786,221.7z M792.7,215.8l1.8,1.9c0,0,1.3,0.1,1.3-0.2c0-0.3,0.2-2,0.2-2l0.9-0.8l-0.8-1.8l-2,0.7L792.7,215.8z"/>
<path id="MI" class="st0" d="M528.2,325.2l19.1-1.9l0.2,1.1l9.9-1.5l12-1.7l0.1-0.6l0.2-1.5l2.1-3.7l2-1.7l-0.2-5.1l1.6-1.6l1.1-0.3
	l0.2-3.6l1.5-3l1.1,0.6l0.2,0.6l0.8,0.2l1.9-1l-0.4-9.1l-3.2-8.2l-2.3-9.1l-2.4-3.2l-2.6-1.8l-1.6,1.1l-3.9,1.8l-1.9,5l-2.7,3.7
	l-1.1,0.6l-1.5-0.6c0,0-2.6-1.5-2.4-2.1s0.5-5,0.5-5l3.4-1.3l0.8-3.4l0.6-2.6l2.4-1.6l-0.3-10l-1.6-2.3l-1.3-0.8l-0.8-2.1l0.8-0.8
	l1.6,0.3l0.2-1.6l-2.6-2.2l-1.3-2.6h-2.6l-4.5-1.5l-5.5-3.4h-2.7l-0.6,0.6l-1-0.5l-3.1-2.3l-2.9,1.8l-2.9,2.3l0.3,3.6l1,0.3l2.1,0.5
	l0.5,0.8l-2.6,0.8l-2.6,0.3l-1.5,1.8l-0.3,2.1l0.3,1.6l0.3,5.5l-3.6,2.1l-0.6-0.2v-4.2l1.3-2.4l0.6-2.4L527,249l-1.9,0.8l-1,4.2
	l-2.7,1.1l-1.8,1.9l-0.2,1l0.6,0.8l-0.6,2.6l-2.3,0.5v1.1l0.8,2.4l-1.1,6.1l-1.6,4l0.6,4.7l0.5,1.1l-0.8,2.4l-0.3,0.8l-0.3,2.7
	l3.6,6l2.9,6.5l1.5,4.8l-0.8,4.7l-1,6l-2.4,5.2l-0.3,2.7l-3.2,3.1L528.2,325.2z M494.9,252.8l-1.3-1.1l-1.8-10.4l-3.7-1.3l-1.7-2.3
	l-12.6-2.8l-2.8-1.1l-8.1-2.2l-7.8-1l-3.9-5.3l0.7-0.5l2.7-0.8l3.6-2.3v-1l0.6-0.6l6-1l2.4-1.9l4.4-2.1l0.2-1.3l1.9-2.9l1.8-0.8
	l1.3-1.8l2.3-2.3l4.4-2.4l4.7-0.5l1.1,1.1l-0.3,1l-3.7,1l-1.5,3.1l-2.3,0.8l-0.5,2.4l-2.4,3.2l-0.3,2.6l0.8,0.5l1-1.1l3.6-2.9
	l1.3,1.3h2.3l3.2,1l1.5,1.1l1.5,3.1l2.7,2.7l3.9-0.2l1.5-1l1.6,1.3l1.6,0.5l1.3-0.8h1.1l1.6-1l4-3.6l3.4-1.1l6.6-0.3l4.5-1.9
	l2.6-1.3l1.5,0.2v5.7l0.5,0.3l2.9,0.8l1.9-0.5l6.1-1.6l1.1-1.1l1.5,0.5v7l3.2,3.1l1.3,0.6l1.3,1l-1.3,0.3l-0.8-0.3l-3.7-0.5
	l-2.1,0.6l-2.3-0.2l-3.2,1.5H536l-5.8-1.3l-5.2,0.2l-1.9,2.6l-7,0.6l-2.4,0.8l-1.1,3.1l-1.3,1.1l-0.5-0.2l-1.5-1.6l-4.5,2.4h-0.6
	l-1.1-1.6l-0.8,0.2l-1.9,4.4l-1,4l-3.2,6.9L494.9,252.8z M465.3,196.3l1.8-2.1l2.2-0.8l5.4-3.9l2.3-0.6l0.5,0.5l-5.1,5.1l-3.3,1.9
	l-2.1,0.9L465.3,196.3z M551.5,228.4l0.6,2.5l3.2,0.2l1.3-1.2c0,0-0.1-1.5-0.4-1.6c-0.3-0.2-1.6-1.9-1.6-1.9l-2.2,0.2l-1.6,0.2
	l-0.3,1.1L551.5,228.4z"/>
<path id="MN" class="st0" d="M348.3,181l-0.6,3.9v10.3l1.6,5l1.9,3.3l0.5,9.9l1.8,13.4l1.8,7.3l0.4,6.4v5.3l-1.6,1.8l-1.8,1.3v1.5
	l0.9,1.7l4.1,3.5l0.7,3.2v35.9l60.3-0.6l21.2-0.7l-0.5-6l-1.8-2.1l-7.2-4.6l-3.6-5.3l-3.4-0.9l-2-2.8h-3.2l-3.5-3.8l-0.5-7l0.1-3.9
	l1.5-3l-0.7-2.7l-2.8-3.1l2.2-6.1l5.4-4l1.2-1.4l-0.2-8l0.2-3l2.6-3l3.8-2.9l1.3-0.2l4.5-5l1.8-0.8l2.3-3.9l2.4-3.6l3.1-2.6l4.8-2
	l9.2-4.1l3.9-1.8l0.6-2.3l-4.4,0.4l-0.7,1.1h-0.6l-1.8-3.1l-8.9,0.3l-1,0.8h-1l-0.5-1.3l-0.8-1.8l-2.6,0.5l-3.2,3.2l-1.6,0.8h-3.1
	l-2.6-1v-2.1l-1.3-0.2l-0.5,0.5l-2.6-1.3l-0.5-2.9l-1.5,0.5l-0.5,1l-2.4-0.5l-5.3-2.4l-3.9-2.6h-2.9l-1.3-1l-2.3,0.6l-1.1,1.1
	l-0.3,1.3H397v-2.1l-6.3-0.3l-0.3-1.5h-4.8l-1.6-1.6l-1.5-6.1l-0.8-5.5l-1.9-0.8l-2.3-0.5l-0.6,0.2l-0.3,8.2h-30.1L348.3,181z"/>
<path id="MO" class="st0" d="M476.8,452.9l0.5-5.9l4.2-3.4l1.9-1v-2.9l0.7-1.6l-1.1-1.6l-2.4,0.3l-2.1-2.5l-1.7-4.5l0.9-2.6l-2-3.2
	l-1.8-4.6l-4.6-0.7l-6.8-5.6l-2.2-4.2l0.8-3.3l2.2-6l0.6-3l-1.9-1l-6.9-0.6l-1.1-1.9V389l-5.3-3.5l-7.2-7.8l-2.3-7.3l-0.5-4.2
	l0.7-2.4l-2.6-3.1l-1.2-2.4l-7.7,0.8l-10,0.6l-48.8,1.2l1.3,2.6l-0.1,2.2l2.3,3.6l3,3.9l3.1,3l2.6,0.2l1.4,1.1v2.9l-1.8,1.6
	l-0.5,2.3l2.1,3.2l2.4,3l2.6,2.1l1.3,11.6l-0.8,40l0.5,5.7l23.7-0.2l23.3-0.7l32.5-1.3l2.2,3.7l-0.8,3.1l-3.1,2.5l-0.5,1.8l5.2,0.5
	l4.1-1.1L476.8,452.9z"/>
<path id="MS" class="st0" d="M488,586.7l2.6-4.2l1.8,0.8l6.8-1.9l2.1,0.3l1.5,0.8h5.2l0.4-1.6l-1.7-14.8l-2.8-19l1-45.1l-0.2-16.7
	l0.2-6.3l-4.8,0.3l-19.6,1.6l-13,0.4l-0.2,3.2l-2.8,1.3l-2.6,5.1l0.5,1.6l0.1,2.4l-2.9,1.1l-3.5,5.1l0.8,2.3l-3,2.5l-1,5.7l-0.6,1.9
	l1.6,2.5l-1.5,1.4l1.5,2.8l0.3,4.2l-1.2,2.5l-0.2,0.9l0.4,5l2,4.5l-0.1,1.7l2.3,2l-0.7,3.1l-0.9,0.3l0.6,1.9l-8.6,15l-0.8,8.2
	l0.5,1.5l24.2-0.7l8.2-0.7l1.9-0.3l0.6,1.4l-1,7.1l3.3,3.3l2.2,6.4L488,586.7z"/>
<path id="MT" class="st0" d="M244.8,185l-5.3,57.1l-1.3,15.2l-59.1-6.6l-49-7.1l-1.4,11.2l-1.9-1.7l-0.4-2.5l-1.3-1.9l-3.3,1.5
	l-0.7,2.5l-2.3,0.3l-3.8-1.6l-4.1,0.1l-2.4,0.7l-3.2-1.5l-3,0.2l-2.1,1.9l-0.9-0.6l-0.7-3.4l0.7-3.2l-2.7-3.2l-3.3-2.5l-2.5-12.6
	l-0.1-5.3l-1.6-0.8l-0.6,1l-4.5,3.2l-1.2-0.1l-2.3-2.8l-0.2-2.8l7-17.1l-0.6-2.7l-3.5-1.1l-0.4-0.9l-2.7-3.5L75.5,184l-3.2-1.6
	l-1.8-4.3l1.3-4.6l-3.2-7.6l4.4-21.3l32.7,6.9l18.4,3.4l32.3,5.3l29.3,4l29.2,3.5l30.8,3.1L244.8,185z"/>
<path id="NC" class="st0" d="M670.4,471.9l-12.7-7.7l-3.1-0.8l-16.6,2.1l-1.6-3l-2.8-2.2l-16.7,0.5l-7.4,0.9l-9.2,4.5l-6.8,2.7
	l-6.5,1.2l-13.4,1.4l0.1-4.1l1.7-1.3l2.7-0.7l0.7-3.8l3.9-2.5l3.9-1.5l4.5-3.7l4.4-2.3l0.7-3.2l4.1-3.8l0.7,1l2.5,0.2l2.4-3.6
	l1.7-0.4l2.6,0.3l1.8-4l2.5-2.4l0.5-1.8l0.1-3.5l4.4,0.1l38.5-5.6l57.5-12.3l2,4.8l3.6,6.5l2.4,2.4l0.6,2.3l-2.4,0.2l0.8,0.6
	l-0.3,4.2l-2.6,1.3L719,437l-1.3,2.9l-3.7,1.6l-2.4-0.3l-1.5-0.2l-1.6-1.3l0.3,1.3v1h1.9l0.8,1.3l-1.9,6.3h4.2l0.6,1.6l2.3-2.3
	l1.3-0.5l-1.9,3.6l-3.1,4.8h-1.3l-1.1-0.5l-2.7,0.6l-5.2,2.4l-6.5,5.3l-3.4,4.7l-1.9,6.5l-0.5,2.4l-4.7,0.5l-5.1,1.5L670.4,471.9z
	 M719.7,445.7l2.6-2.5l3.2-2.6l1.5-0.6l0.2-2l-0.6-6.1l-1.5-2.3l-0.6-1.9l0.7-0.2l2.7,5.5l0.4,4.4l-0.2,3.4l-3.4,1.5l-2.8,2.4
	l-1.1,1.2L719.7,445.7z"/>
<path id="ND" class="st0" d="M354.7,240.6l-0.4-6.2l-1.8-7.3l-1.8-13.6l-0.5-9.7l-1.9-3.2l-1.6-5.3v-10.4l0.6-3.8l-1.8-5.5
	l-28.6-0.6l-18.6-0.6l-26.5-1.3l-25.2-2.2l-0.9,14.4l-4.7,50.9l56.8,3.9l56.9,1.7V240.6L354.7,240.6z"/>
<path id="NE" class="st0" d="M354,318.5l-1-2.3l-0.5-1.6l-2.9-1.6l-4.8-1.5l-2.2-1.2l-2.6,0.1l-3.7,0.4l-4.2,1.2l-6-4.1l-2.2-2
	l-10.7,0.6l-41.5-2.4l-35.6-2.2l-4.3,43.7l33.1,3.3l-1.4,21.1l21.7,1l40.6,1.2l43.8,0.6h4.5l-2.2-3l-2.6-3.9l0.1-2.3l-1.4-2.7
	l-1.9-5.2l-0.4-6.7l-1.4-4.1l-0.5-5l-2.3-3.7l-1-4.7l-2.8-7.9l-1-5.3L354,318.5z"/>
<path id="NH" class="st0" d="M765.4,255.5l1.1-3.2l-2.7-1.2l-0.5-3.1l-4.1-1.1l-0.3-3l-11.7-37.5l-0.7,0.1l-0.6,1.6l-0.6-0.5l-1-1
	l-1.5,1.9l-0.2,2.3l0.5,8.4l1.9,2.8v4.3l-3.9,4.8l-2.4,0.9v0.7l1.1,1.9v8.6l-0.8,9.2l-0.2,4.7l1,1.4l-0.2,4.7l-0.5,1.5l1,1.1
	l5.1-1.2l13.8-3.5l1.7-2.9l4-1.9L765.4,255.5z"/>
<path id="NJ" class="st0" d="M707.4,342.5l0.1-1.5l2.7-1.3l1.7-2.8l1.7-2.4l3.3-3.2v-1.2l-6.1-4.1l-1-2.7l-2.7-0.3l-0.1-0.9
	l-0.7-2.2l2.2-1.1l0.2-2.9l-1.3-1.3l0.2-1.2l1.9-3.1v-3.1l2.5-3.1l5.6,2.5l6.4,1.9l2.5,1.2l0.1,1.8l-0.5,2.7l0.4,4.5l-2.1,1.9
	l-1.1,1l0.5,0.5l2.7-0.3l1.1-0.8l1.6,3.4l0.2,9.4l0.6,1.1l-1.1,5.5l-3.1,6.5l-2.7,4l-0.8,4.8l-2.1,2.4h-0.8l-0.3-2.7l0.8-1l-0.2-1.5
	l-4-0.6l-4.8-2.3l-3.2-2.9l-1-2L707.4,342.5z"/>
<path id="NM" class="st0" d="M153.9,543.6l-16.7-2.6l-1.2,9.6l-15.8-2l6-39.7l7-53.2l4.4-30.9l34,3.9l37.4,4.4l32,2.8l-0.3,10.8
	l-1.4-0.1l-7.4,97.7l-28.4-1.8l-38.1-3.7l0.7,6.3L153.9,543.6z"/>
<path id="NV" class="st0" d="M6.8,287.8l38.7,8.5l26,5.2l-10.6,53.1l-5.4,29.8l-3.3,15.5L50.1,411l-2.6,16.4l-1.7,3.1l-1.6-0.1
	l-1.2-2.6l-2.8-0.5l-1.3-1.1l-1.8,0.1l-0.9,0.8l-1.8,1.3l-0.3,7.3l-0.3,1.5l-0.5,12.4l-1.1,1.8l-16.7-25.5l-42.1-62.1l-12.4-19
	l8.6-32.6l8-31.3L6.8,287.8z"/>
<path id="NY" class="st0" d="M727.1,314.2l0.5-2.7l-0.2-2.4l-3-1.5l-6.5-2l-6-2.6l-0.6-0.4l-2.7-0.3l-2-1.5l-2.1-5.9l-3.3-0.5
	l-2.4-2.4l-38.4,8.1l-31.6,6l-0.5-6.5l1.6-1.2l1.3-1.1l1-1.6l1.8-1.1l1.9-1.8l0.5-1.6l2.1-2.7l1.1-1l-0.2-1l-1.3-3.1l-1.8-0.2
	l-1.9-6.1l2.9-1.8l4.4-1.5l4-1.3l3.2-0.5l6.3-0.2l1.9,1.3l1.6,0.2l2.1-1.3l2.6-1.1l5.2-0.5l2.1-1.8l1.8-3.2l1.6-1.9h2.1l1.9-1.1
	l0.2-2.3l-1.5-2.1l-0.3-1.5l1.1-2.1v-1.5h-1.8l-1.8-0.8l-0.8-1.1l-0.2-2.6l5.8-5.5l0.6-0.8l1.5-2.9l2.9-4.5l2.7-3.7l2.1-2.4l2.4-1.8
	l3.1-1.2l5.5-1.3l3.2,0.2l4.5-1.5l7.4-2.2l0.7,4.9l2.4,6.5l0.8,5l-1,4.2l2.6,4.5l0.8,2l-0.9,3.2l3.7,1.7l2.7,10.2v5.8l-0.6,10.9
	l0.8,5.4l0.7,3.6l1.5,7.3v8.1l-1.1,2.3l2.1,2.7l0.5,0.9l-1.9,1.8l0.3,1.3l1.3-0.3l1.5-1.3l2.3-2.6l1.1-0.6l1.6,0.6l2.3,0.2l7.9-3.9
	l2.9-2.7l1.3-1.5l4.2,1.6l-3.4,3.6l-3.9,2.9l-7.1,5.3l-2.6,1l-5.8,1.9l-4,1.1l-1-0.4L727.1,314.2z"/>
<path id="OH" class="st0" d="M547.5,325.4l1.7,15.5L554,382l3.9-0.2l2.3-0.8l3.6,1.8l1.7,4.2l5.4,0.1l1.8,2h1.7l2.4-1.4l3.1,0.5
	l1.5,1.3l1.8-2l2.3-1.4l2.4-0.4l0.6,2.7l1.6,1l2.6,2l0.8,0.2l2-0.1l1.2-0.6v-2.1l1.7-1.5l0.1-4.8l1.1-4.2l1.9-1.3l1,0.7l1,1.1
	l0.7,0.2l0.4-0.4l-0.9-2.7v-2.2l1.1-1.4l2.5-3.6l1.3-1.5l2.2,0.5l2.1-1.5l3-3.3l2.2-3.7l0.2-5.4l0.5-5v-4.6l-1.2-3.2l1.2-1.8
	l1.3-1.2l-0.6-2.8l-4.3-25.6l-6.2,3.7l-3.9,2.3l-3.4,3.7l-4,3.9l-3.2,0.8l-2.9,0.5l-5.5,2.6l-2.1,0.2l-3.4-3.1l-5.2,0.6l-2.6-1.5
	l-2.2-1.3L547.5,325.4z"/>
<path id="OK" class="st0" d="M295.6,449.1l-1.8,24.3l-0.9,18l0.2,1.6l4,3.6l1.7,0.9h0.9l0.9-2.1l1.5,1.9l1.6,0.1l0.3-0.2l0.2-1.1
	l2.8,1.4l-0.4,3.5l3.8,0.5l2.5,1l4.2,0.6l2.3,1.6l2.5-1.7l3.5,0.7l2.2,3.1l1.2,0.1v2.3l2.1,0.7l2.5-2.1l1.8,0.6l2.7,0.1l0.7,2.3
	l4.4,1.8l1.7-0.3l1.9-4.2h1.3l1.1,2.1l4.2,0.8l3.4,1.3l3,0.8l1.6-0.7l0.7-2.7h4.5l1.9,0.9l2.7-1.9h1.4l0.6,1.4h3.6l2-1.8l2.3,0.6
	l1.7,2.2l3,1.7l3.4,0.9l1.9,1.2l-0.3-37.6l-1.4-10.9l-0.1-8.6l-1.5-6.6l-0.6-6.8l0.1-4.3l-12.6,0.3l-46.3-0.5l-44.7-2.1L242,436
	l-0.4,10.7L295.6,449.1z"/>
<path id="OR" class="st0" d="M-48.9,273.1l28.2,7.2l27.5,6.5l17,3.7l8.8-35.1l1.2-4.4l2.4-5.5l-0.7-1.3l-2.5,0.1l-1.3-1.8l0.6-1.5
	l0.4-3.3l4.7-5.7l1.9-0.9l0.9-0.8l0.7-2.7l0.8-1.1l3.9-5.7l3.7-4l0.2-3.3l-3.4-2.5l-1.2-4.6l-13.1-3.8l-15.2-3.4l-14.8,0.4l-1.1-1.3
	l-5.1,1.8l-4.5-0.5l-2.4-1.6l-1.3,0.5l-4.7-0.3l-2-1.4l-4.8-1.8l-1.1-0.1l-4.4-1.3l-1.8,1.5l-6.3-0.2L-43,191l0.2-9.3l-2.1-3.5
	l-4.1-0.6l-0.7-2.5l-2.4-0.5l-5.8,2.1l-2.3,6.5l-3.2,10l-3.2,6.5l-5,14.1l-6.5,13.6l-8.1,12.6l-1.9,2.9l-0.8,8.6l-1.3,6l2.7,3.5
	L-48.9,273.1z"/>
<path id="PA" class="st0" d="M620.3,306.4l1.3-0.5l5.7-5.5l0.7,6.9l33.5-6.5l36.9-7.8l2.3,2.3l3.1,0.4l2,5.6l2.4,1.9l2.8,0.4
	l0.1,0.1l-2.6,3.2v3.1l-1.9,3.1l-0.2,1.9l1.3,1.3l-0.2,1.9l-2.4,1.1l1,3.4l0.2,1.1l2.8,0.3l0.9,2.5l5.9,3.9v0.4l-3.1,3l-1.5,2.2
	l-1.7,2.8l-2.7,1.2l-1.4,0.3l-2.1,1.3l-1.6,1.4l-22.4,4.3l-38.7,7.8l-11.3,1.4l-3.9,0.7l-5.1-22.4l-4.3-25.9L620.3,306.4z"/>
<path id="RI" class="st0" d="M757.3,289.9l-0.8-4.4l-1.6-6l5.7-1.5l1.5,1.3l3.4,4.3l2.8,4.4l-2.8,1.4l-1.3-0.2l-1.1,1.8l-2.4,1.9
	l-2.8,1.1L757.3,289.9z"/>
<path id="SC" class="st0" d="M642.7,527.8l-2.1-1l-1.9-5.6l-2.5-2.3l-2.5-0.5l-1.5-4.6l-3-6.5l-4.2-1.8l-1.9-1.8l-1.2-2.6l-2.4-2
	l-2.3-1.3l-2.2-2.9l-3.2-2.4l-4.4-1.7l-0.4-1.4l-2.3-2.8l-0.5-1.5l-3.8-5.4l-3.4,0.1l-3.9-2.5l-1.2-1.2l-0.2-1.4l0.6-1.6l2.7-1.3
	l-0.8-2l6.4-2.7l9.2-4.5l7.1-0.9l16.4-0.5l2.3,1.9l1.8,3.5l4.6-0.8l12.6-1.5l2.7,0.8l12.5,7.4l10.1,8.3l-5.3,5.4l-2.6,6.1l-0.5,6.3
	l-1.6,0.8l-1.1,2.7l-2.4,0.6l-2.1,3.6l-2.7,2.7l-2.3,3.4l-1.6,0.8l-3.6,3.4l-2.9,0.2l1,3.2l-5,5.3l-2.3,1.6L642.7,527.8z"/>
<path id="SD" class="st0" d="M354.7,295.3l-0.9,3.2l0.4,3l2.6,2l-1.2,5.4l-1.8,4.1l1.5,3.3l0.7,1.1l-1.3,0.1l-0.7-1.6l-0.6-2
	l-3.3-1.8l-4.8-1.5l-2.5-1.3l-2.9,0.1l-3.9,0.4l-3.8,1.2l-5.3-3.8l-2.7-2.4l-10.9,0.8l-41.5-2.4l-35.6-2.2l1.5-24.8l2.8-34l0.4-5
	l56.9,3.9l56.9,1.7v2.7l-1.3,1.5l-2,1.5l-0.1,2.2l1.1,2.2l4.1,3.4l0.5,2.7v35.9L354.7,295.3z"/>
<path id="TN" class="st0" d="M554.5,473.8l-13.1,1.2l-23.3,2.2l-37.6,2.7l-11.8,0.4l0.9-0.6l0.9-4.5l-1.2-3.6l3.9-2.3l0.4-2.5
	l1.2-4.3l3-9.5l0.5-5.6l0.3-0.2l12.3-0.2l13.6-0.8l0.1-3.9l3.5-0.1l30.4-3.3l54-5.2l10.3-1.5l7.6-0.2l2.4-1.9l1.3,0.3l-0.1,3.3
	l-0.4,1.6l-2.4,2.2l-1.6,3.6l-2-0.4l-2.4,0.9l-2.2,3.3l-1.4-0.2l-0.8-1.2l-1.1,0.4l-4.3,4l-0.8,3.1l-4.2,2.2l-4.3,3.6l-3.8,1.5
	l-4.4,2.8l-0.6,3.6l-2.5,0.5l-2,1.7l-0.2,4.8L554.5,473.8z"/>
<path id="TX" class="st0" d="M166.5,539.8l37,3.6l29.3,1.9l7.4-97.7l54.4,2.4l-1.7,23.3l-1,18l0.2,2l4.4,4.1l2,1.1h1.8l0.5-1.2
	l0.7,0.9l2.4,0.2l1.1-0.6v-0.2l1,0.5l-0.4,3.7l4.5,0.7l2.4,0.9l4.2,0.7l2.6,1.8l2.8-1.9l2.7,0.6l2.2,3.1l0.8,0.1v2.1l3.3,1.1
	l2.5-2.1l1.5,0.5l2.1,0.1l0.6,2.1l5.2,2l2.3-0.5l1.9-4h0.1l1.1,1.9l4.6,0.9l3.4,1.3l3.2,1l2.4-1.2l0.7-2.3h3.6l2.1,1l3-2h0.4
	l0.5,1.4h4.7l1.9-1.8l1.3,0.4l1.7,2.1l3.3,1.9l3.4,1l2.5,1.4l2.7,2l3.1-1.2l2.1,0.8l0.7,20l0.7,9.5l0.6,4.1l2.6,4.4l0.9,4.5l4.2,5.9
	l0.3,3.1l0.6,0.8l-0.7,7.7l-2.9,4.8l1.3,2.6l-0.5,2.4l-0.8,7.2l-1.3,3l0.3,4.2l-5.6,1.6l-9.9,4.5l-1,1.9l-2.6,1.9l-2.1,1.5l-1.3,0.8
	l-5.7,5.3l-2.7,2.1l-5.3,3.2l-5.7,2.4l-6.3,3.4L355,632l-5.8,3.6l-3.4,0.6l-3.9,5.5l-4,0.3l-1,1.9l2.3,1.9l-1.5,5.5l-1.3,4.5
	l-1.1,3.9l-0.8,4.5l0.8,2.4l1.8,7l1,6.1l1.8,2.7l-1,1.5l-3.1,1.9l-5.7-3.9l-5.5-1.1l-1.3,0.5l-3.2-0.6l-4.2-3.1l-5.2-1.1l-7.6-3.4
	l-2.1-3.9l-1.3-6.5l-3.2-1.9l-0.6-2.3l0.6-0.6l0.3-3.4l-1.3-0.6l-0.6-1l1.3-4.4l-1.6-2.3l-3.2-1.3l-3.4-4.4l-3.6-6.6l-4.2-2.6
	l0.2-1.9l-5.3-12.3l-0.8-4.2l-1.8-1.9l-0.2-1.5l-6-5.3l-2.6-3.1V600l-2.6-2.1l-6.8-1.1l-7.4-0.6l-3.1-2.3l-4.5,1.8l-3.6,1.5
	l-2.3,3.2l-1,3.7l-4.4,6.1l-2.4,2.4l-2.6-1l-1.8-1.1l-1.9-0.6l-3.9-2.3V607l-1.8-1.9l-5.2-2.1l-7.4-7.8l-2.3-4.7v-8.1l-3.2-6.5
	l-0.5-2.7l-1.6-1l-1.1-2.1l-5-2.1l-1.3-1.6l-7.1-7.9l-1.3-3.2l-4.7-2.3l-1.5-4.4l-2.6-2.9l-1.7-0.5L166.5,539.8z M340.9,681.5
	l-0.6-7.1l-2.7-7.2l-0.6-7l1.5-8.2l3.3-6.9l3.5-5.4l3.2-3.6l0.6,0.2l-4.8,6.6l-4.4,6.5l-2,6.6l-0.3,5.2l0.9,6.1l2.6,7.2l0.5,5.2
	l0.2,1.5L340.9,681.5z"/>
<path id="UT" class="st0" d="M112.1,420.1l24.6,3.6l1.9-13.7l7-50.5l2.3-22l-32.2-3.5l2.2-13.1l1.8-10.6L85,304.2l-12.5-2.5
	l-10.6,52.9l-5.4,30L53.2,400l-1.7,9.2L112.1,420.1z"/>
<path id="VA" class="st0" d="M718.4,379.4l-0.2,2.8l-2.9,3.8l-0.4,4.6l0.5,3.4l-1.8,5l-2.2,1.9l-1.5-4.6l0.4-5.4l1.6-4.2l0.7-3.3
	l-0.1-1.7L718.4,379.4z M658.1,424l-38.6,5.6l-4.8-0.1l-2.2-0.3l-2.5,1.9l-7.3,0.1l-10.3,1.6l-6.7,0.6l4.1-2.6l4.1-2.3v-2.1l5.7-7.3
	l4.1-3.7l2.2-2.5l3.6,4.3l3.8,0.9l2.7-1l2-1.5l2.4,1.2l4.6-1.3l1.7-4.4l2.4,0.7l3.2-2.3l1.6,0.4l2.8-3.2l0.2-2.7l-0.8-1.2l4.8-10.5
	l1.8-5.2l0.5-4.7l0.7-0.2l1.1,1.7l1.5,1.2l3.9-0.2l1.7-8.1l3-0.6l0.8-2.6l2.8-2.2l1.1-2.1l1.8-4.3l0.1-4.6l3.6,1.4l6.6,3.1l0.3-5.2
	l3.4,1.2l-0.6,2.9l8.6,3.1l1.4,1.8l-0.8,3.3l-1.3,1.3l-0.5,1.7l0.5,2.4l2,1.3l3.9,1.4l2.9,1l4.9,0.9l2.2,2.1l3.2,0.4l0.9,1.2
	l-0.4,4.7l1.4,1.1l-0.5,1.9l1.2,0.8l-0.2,1.4l-2.7-0.1l0.1,1.6l2.3,1.5l0.1,1.4l1.8,1.8l0.5,2.5l-2.6,1.4l1.6,1.5l5.8-1.7l3.7,6.2
	L658.1,424z"/>
<path id="VT" class="st0" d="M716.4,225.5l2.4,6.5l0.8,5.3l-1,3.9l2.5,4.4l0.9,2.3l-0.7,2.6l3.3,1.5l2.9,10.8v5.3L739,266l-1-1.1
	l0.6-1.9l0.2-4.3l-1-1.4l0.2-4.7l0.8-9.3v-8.5l-1.1-1.8v-1.6l2.8-1.1l3.5-4.4v-3.6l-1.9-2.7l-0.3-5.8l-26.1,6.8L716.4,225.5z"/>
<path id="WA" class="st0" d="M-41.8,181.9l-2.3-4.3l-4.1-0.7l-0.4-2.4l-2.5-0.6l-2.9-0.5l-1.8,1l-2.3-2.9l0.3-2.9l2.7-0.3l1.6-4
	l-2.6-1.1l0.2-3.7l4.4-0.6l-2.7-2.7l-1.5-7.1l0.6-2.9v-7.9l-1.8-3.2l2.3-9.4l2.1,0.5l2.4,2.9l2.7,2.6l3.2,1.9l4.5,2.1l3.1,0.6
	l2.9,1.5l3.4,1l2.3-0.2v-2.4l1.3-1.1l2.1-1.3l0.3,1.1l0.3,1.8l-2.3,0.5l-0.3,2.1l1.8,1.5l1.1,2.4l0.6,1.9l1.5-0.2l0.2-1.3l-1-1.3
	l-0.5-3.2l0.8-1.8l-0.6-1.5v-2.6l1.8-3.6L-22,127l-2.4-4.8l0.3-0.8l1.4-0.8l4.4,1.5l9.7,2.7l8.6,1.9l20,5.7l23,5.7l15,3.5l-4.8,17.6
	L48.7,180l-3.4,16.2l-0.4,9.2l0,0L32,201.7l-15.3-3.5l-14.5,0.3L1.1,197l-5.7,2.1l-3.9-0.4l-2.6-1.8l-1.7,0.6l-4.2-0.2l-1.7-1.3
	l-5.2-1.8l-1.2-0.2l-4.8-1.4l-1.9,1.6l-5.7-0.2l-4.6-3.3L-41.8,181.9z M-32.2,126.5l2-0.2l0.5,1.4l1.5-1.6h2.3l0.8,1.5l-1.5,1.7
	l0.6,0.8l-0.7,2l-1.4,0.4c0,0-0.9,0.1-0.9-0.2s1.5-2.6,1.5-2.6l-1.7-0.6l-0.3,1.5l-0.7,0.6l-1.5-2.3L-32.2,126.5z"/>
<path id="WI" class="st0" d="M425.1,224.1l2.9,0.5l2.9-0.6l7.4-3.2l2.9-1.9l2.1-0.8l1.9,1.5l-1.1,1.1l-1.9,3.1l-0.6,1.9l1,0.6l1.8-1
	l1.1-0.2l2.7,0.8l0.6,1.1l1.1,0.2l0.6-1.1l4,5.3l8.2,1.2l8.2,2.2l2.6,1.1l12.3,2.6l1.6,2.3l3.6,1.2l1.7,10.2l1.6,1.4l1.5,0.9
	l-1.1,2.3l-1.8,1.6l-2.1,4.7l-1.3,2.4l0.2,1.8l1.5,0.3l1.1-1.9l1.5-0.8l0.8-2.3l1.9-1.8l2.7-4l4.2-6.3l0.8-0.5l0.3,1l-0.2,2.3
	l-2.9,6.8l-2.7,5.7l-0.5,3.2l-0.6,2.6l0.8,1.3l-0.2,2.7l-1.9,2.4l-0.5,1.8l0.6,3.6l0.6,3.4l-1.5,2.6l-0.8,2.9l-1,3.1l1.1,2.4
	l0.6,6.1l1.6,4.5l-0.2,3l-15.9,1.8l-17.5,1h-12.7l-0.7-1.5l-2.9-0.4l-2.6-1.3l-2.3-3.7l-0.3-3.6l2-2.9l-0.5-1.4l-2.1-2.2l-0.8-3.3
	l-0.6-6.8l-2.1-2.5l-7-4.5l-3.8-5.4l-3.4-1l-2.2-2.8h-3.2l-2.9-3.3l-0.5-6.5l0.1-3.8l1.5-3.1l-0.8-3.2l-2.5-2.8l1.8-5.4l5.2-3.8
	l1.6-1.9l-0.2-8.1l0.2-2.8l2.4-2.8L425.1,224.1z"/>
<path id="WV" class="st0" d="M642.6,368.5l5.8-6l2.6-0.8l1.6-1.5l1.5-2.2l1.1,0.3l3.1-0.2l4.6-3.6l1.5-0.5l1.3,1l2.6,1.2l3,3
	l-0.4,4.3l-5.4-2.6l-4.8-1.8l-0.1,5.9l-2.6,5.7l-2.9,2.4l-0.8,2.3l-3,0.5l-1.7,8.1l-2.8,0.2l-1.1-1l-1.2-2l-2.2,0.5l-0.5,5.1
	l-1.8,5.1l-5,11l0.9,1.4l-0.1,2l-2.2,2.5l-1.6-0.4l-3.1,2.3l-2.8-0.8l-1.8,4.9l-3.8,1l-2.5-1.3l-2.5,1.9l-2.3,0.7l-3.2-0.8l-3.8-4.5
	l-3.5-2.2l-2.5-2.5l-2.9-3.7l-0.5-2.3l-2.8-1.7l-0.6-1.3l-0.2-5.6l0.3,0.1l2.4-0.2l1.8-1v-2.2l1.7-1.5l0.1-5.2l0.9-3.6l1.1-0.7
	l0.4,0.3l1,1.1l1.7,0.5l1.1-1.3l-1-3.1v-1.6l3.1-4.6l1.2-1.3l2,0.5l2.6-1.8l3.1-3.4l2.4-4.1l0.2-5.6l0.5-4.8v-4.9l-1.1-3l0.9-1.3
	l0.8-0.7l4.3,19.3l4.3-0.8l11.2-1.3L642.6,368.5z"/>
<path id="WY" class="st0" d="M236.7,276.1l-1.5,25.4l-4.4,44l-2.7-0.3l-83.3-9.1l-27.9-3l2-12l6.9-41l3.8-24.2l1.3-11.2l48.2,7
	l59.1,6.5L236.7,276.1z"/>
<g>
	<g>
		<path class="st2" d="M500.3,322.2c-3.1-1.3-6.2-2.5-9.3-3.7"/>
		<path class="st3" d="M470.9,312.7c-79.1-18-173.1,15.3-230.7,50.2"/>
		<path class="st2" d="M231.3,368.4c-2.9,1.9-5.6,3.7-8.3,5.6"/>
	</g>
</g>
<line class="st4" x1="223" y1="374" x2="224.4" y2="367.6"/>
<path class="st4" d="M231.8,374.1"/>
<path class="st4" d="M223,374.1"/>
<line class="st4" x1="222.1" y1="373.7" x2="229.3" y2="375.4"/>
</svg>
